<?xml version="1.0" standalone="no"?><!DOCTYPE svg PUBLIC "-//W3C//DTD SVG 1.1//EN" "http://www.w3.org/Graphics/SVG/1.1/DTD/svg11.dtd"><svg t="1776098550319" class="icon" viewBox="0 0 1024 1024" version="1.1" xmlns="http://www.w3.org/2000/svg" p-id="1703" xmlns:xlink="http://www.w3.org/1999/xlink" width="200" height="200"><path d="M369.371429 932.571429c0 43.885714 69.485714 76.8 153.6 76.8 84.114286 0 153.6-32.914286 153.6-76.8 0-43.885714-69.485714-76.8-153.6-76.8-84.114286 0-153.6 32.914286-153.6 76.8z" fill-opacity=".2" fill="#d81e06" p-id="1704"></path><path d="M519.314286 43.885714c175.542857 0 314.514286 142.628571 314.514285 314.514286 0 58.514286-14.628571 113.371429-43.885714 164.571429l-245.028571 405.942857c-7.314286 14.628571-25.6 18.285714-40.228572 10.971428l-10.971428-10.971428-245.028572-405.942857c-91.428571-146.285714-43.885714-343.771429 106.057143-431.542858 47.542857-29.257143 106.057143-47.542857 164.571429-47.542857z m7.314285 464.457143c62.171429 0 117.028571-51.2 117.028572-117.028571 0-62.171429-51.2-117.028571-117.028572-117.028572-62.171429 0-117.028571 51.2-117.028571 117.028572 0 65.828571 51.2 117.028571 117.028571 117.028571z" fill="#d81e06" p-id="1705"></path></svg>